# xmcd CD database file generated by Grip 2.96
# 
# Track frame offsets:
#       150
#       17789
#       37986
#       49337
#       68352
#       83653
#       100083
#       119943
#       136055
#       151682
#       167600
# 
# Disc length: 2455 seconds
# 
# Revision: 0
# Processed by: cddbd v1.5.1PL0 Copyright (c) Steve Scherf et al.
# Submitted via: Grip 2.96
# 
DISCID=8009950b
DTITLE=Andy Cowan - Sweet Release
DYEAR=1900
DGENRE=
TTITLE0=Elvis is King
TTITLE1=The Rivers Song
TTITLE2=Roll Away The Stone
TTITLE3=Sweet Release
TTITLE4=Freedom Bell
TTITLE5=Heavy Love
TTITLE6=Dedication
TTITLE7=Everybody Wants To Be Somebody Else
TTITLE8=Falling
TTITLE9=Mountain Mama
TTITLE10=Voodoo Kind
EXTD=
EXTT0=
EXTT1=
EXTT2=
EXTT3=
EXTT4=
EXTT5=
EXTT6=
EXTT7=
EXTT8=
EXTT9=
EXTT10=
PLAYORDER=
